<!-- Copyright 2000-2024 JetBrains s.r.o. and contributors. Use of this source code is governed by the Apache 2.0 license. -->
<svg width="16" height="16" viewBox="0 0 16 16" fill="none" xmlns="http://www.w3.org/2000/svg">
<path fill-rule="evenodd" clip-rule="evenodd" d="M11 10.5C11 10.2239 11.2239 10 11.5 10H15.5C15.7761 10 16 10.2239 16 10.5V14.5C16 14.7761 15.7761 15 15.5 15C15.2239 15 15 14.7761 15 14.5V11.7071L10.8536 15.8536C10.6583 16.0488 10.3417 16.0488 10.1464 15.8536C9.95118 15.6583 9.95118 15.3417 10.1464 15.1464L14.2929 11H11.5C11.2239 11 11 10.7761 11 10.5Z" fill="#3574F0"/>
<path fill-rule="evenodd" clip-rule="evenodd" d="M10.5 3H4.73244C4.90261 3.29417 5 3.63571 5 4V12C5 12.5523 5.44772 13 6 13H10.8786L9.87863 14H6C4.89543 14 4 13.1046 4 12V5H1.5C1.22386 5 1 4.77614 1 4.5V4C1 2.89543 1.89543 2 3 2H10.5C11.8807 2 13 3.11929 13 4.5V9H12V4.5C12 3.67157 11.3284 3 10.5 3ZM2 4C2 3.44772 2.44772 3 3 3C3.55228 3 4 3.44772 4 4H2Z" fill="#6C707E"/>
</svg>
